<mxfile host="Electron" modified="2024-01-04T06:52:07.331Z" agent="Mozilla/5.0 (Windows NT 10.0; Win64; x64) AppleWebKit/537.36 (KHTML, like Gecko) draw.io/22.0.2 Chrome/114.0.5735.289 Electron/25.8.4 Safari/537.36" etag="vno6pCgJf3wE_0AUvDdg" version="22.0.2" type="device" pages="2">
  <diagram name="Page-1" id="hK2-iVHtPmQik-oku7VF">
    <mxGraphModel dx="1200" dy="763" grid="1" gridSize="10" guides="1" tooltips="1" connect="1" arrows="1" fold="1" page="1" pageScale="1" pageWidth="850" pageHeight="1100" math="0" shadow="0">
      <root>
        <mxCell id="0" />
        <mxCell id="1" parent="0" />
      </root>
    </mxGraphModel>
  </diagram>
  <diagram id="ZSWkqpisbcTcC7pACeqQ" name="Page-2">
    <mxGraphModel dx="2410" dy="2092" grid="1" gridSize="10" guides="1" tooltips="1" connect="1" arrows="1" fold="1" page="1" pageScale="1" pageWidth="850" pageHeight="1100" math="0" shadow="0">
      <root>
        <mxCell id="0" />
        <mxCell id="1" parent="0" />
        <mxCell id="dcRqdp4wQ2sYVilebc7Z-3" value="AWS Services" style="swimlane;fontStyle=0;childLayout=stackLayout;horizontal=1;startSize=30;horizontalStack=0;resizeParent=1;resizeParentMax=0;resizeLast=0;collapsible=1;marginBottom=0;whiteSpace=wrap;html=1;" parent="1" vertex="1">
          <mxGeometry width="140" height="120" as="geometry" />
        </mxCell>
        <mxCell id="dcRqdp4wQ2sYVilebc7Z-6" value="S3, Lambda, Cloudwatch, Translate" style="text;strokeColor=none;fillColor=none;align=left;verticalAlign=middle;spacingLeft=4;spacingRight=4;overflow=hidden;points=[[0,0.5],[1,0.5]];portConstraint=eastwest;rotatable=0;whiteSpace=wrap;html=1;" parent="dcRqdp4wQ2sYVilebc7Z-3" vertex="1">
          <mxGeometry y="30" width="140" height="30" as="geometry" />
        </mxCell>
        <mxCell id="dcRqdp4wQ2sYVilebc7Z-4" value="Total # of Lambda 3" style="text;strokeColor=none;fillColor=none;align=left;verticalAlign=middle;spacingLeft=4;spacingRight=4;overflow=hidden;points=[[0,0.5],[1,0.5]];portConstraint=eastwest;rotatable=0;whiteSpace=wrap;html=1;" parent="dcRqdp4wQ2sYVilebc7Z-3" vertex="1">
          <mxGeometry y="60" width="140" height="30" as="geometry" />
        </mxCell>
        <mxCell id="dcRqdp4wQ2sYVilebc7Z-5" value="Total # of s3 bucket 4" style="text;strokeColor=none;fillColor=none;align=left;verticalAlign=middle;spacingLeft=4;spacingRight=4;overflow=hidden;points=[[0,0.5],[1,0.5]];portConstraint=eastwest;rotatable=0;whiteSpace=wrap;html=1;" parent="dcRqdp4wQ2sYVilebc7Z-3" vertex="1">
          <mxGeometry y="90" width="140" height="30" as="geometry" />
        </mxCell>
        <mxCell id="dcRqdp4wQ2sYVilebc7Z-8" value="" style="shape=umlActor;verticalLabelPosition=bottom;verticalAlign=top;html=1;fillColor=#1ba1e2;fontColor=#ffffff;strokeColor=#006EAF;" parent="1" vertex="1">
          <mxGeometry x="-110" y="300" width="30" height="60" as="geometry" />
        </mxCell>
        <mxCell id="dcRqdp4wQ2sYVilebc7Z-10" value="1.) Upload Files" style="text;html=1;align=center;verticalAlign=middle;resizable=0;points=[];autosize=1;strokeColor=none;fillColor=none;" parent="1" vertex="1">
          <mxGeometry x="-85" y="298" width="110" height="30" as="geometry" />
        </mxCell>
        <mxCell id="dcRqdp4wQ2sYVilebc7Z-14" value="" style="outlineConnect=0;dashed=0;verticalLabelPosition=bottom;verticalAlign=top;align=center;html=1;shape=mxgraph.aws3.machine_learning;fillColor=#2E73B8;gradientColor=none;" parent="1" vertex="1">
          <mxGeometry x="-120" y="440" width="76.5" height="93" as="geometry" />
        </mxCell>
        <mxCell id="dcRqdp4wQ2sYVilebc7Z-17" value="Lambda" style="outlineConnect=0;dashed=0;verticalLabelPosition=bottom;verticalAlign=top;align=center;html=1;shape=mxgraph.aws3.lambda_function;fillColor=#F58534;gradientColor=none;" parent="1" vertex="1">
          <mxGeometry x="-130" y="-3" width="69" height="72" as="geometry" />
        </mxCell>
        <mxCell id="dcRqdp4wQ2sYVilebc7Z-19" value="S3" style="outlineConnect=0;dashed=0;verticalLabelPosition=bottom;verticalAlign=top;align=center;html=1;shape=mxgraph.aws3.s3;fillColor=#E05243;gradientColor=none;" parent="1" vertex="1">
          <mxGeometry x="31" y="130" width="76.5" height="93" as="geometry" />
        </mxCell>
        <mxCell id="dcRqdp4wQ2sYVilebc7Z-22" value="" style="edgeStyle=orthogonalEdgeStyle;html=1;endArrow=block;elbow=vertical;startArrow=none;endFill=1;strokeColor=#006EAF;rounded=0;fillColor=#1ba1e2;" parent="1" source="dcRqdp4wQ2sYVilebc7Z-8" edge="1">
          <mxGeometry width="100" relative="1" as="geometry">
            <mxPoint x="-85" y="340" as="sourcePoint" />
            <mxPoint x="100" y="330" as="targetPoint" />
          </mxGeometry>
        </mxCell>
        <mxCell id="dcRqdp4wQ2sYVilebc7Z-23" value="" style="edgeStyle=orthogonalEdgeStyle;html=1;endArrow=block;elbow=vertical;startArrow=none;endFill=1;strokeColor=#006EAF;rounded=0;fillColor=#1ba1e2;" parent="1" target="dcRqdp4wQ2sYVilebc7Z-26" edge="1">
          <mxGeometry width="100" relative="1" as="geometry">
            <mxPoint x="176.5" y="330" as="sourcePoint" />
            <mxPoint x="270" y="360" as="targetPoint" />
            <Array as="points">
              <mxPoint x="290" y="330" />
              <mxPoint x="290" y="330" />
            </Array>
          </mxGeometry>
        </mxCell>
        <mxCell id="dcRqdp4wQ2sYVilebc7Z-26" value="" style="outlineConnect=0;dashed=0;verticalLabelPosition=bottom;verticalAlign=top;align=center;html=1;shape=mxgraph.aws3.lambda_function;fillColor=#F58534;gradientColor=none;" parent="1" vertex="1">
          <mxGeometry x="340" y="283.5" width="69" height="72" as="geometry" />
        </mxCell>
        <mxCell id="dcRqdp4wQ2sYVilebc7Z-29" value="2.) Trigger" style="text;html=1;align=center;verticalAlign=middle;resizable=0;points=[];autosize=1;strokeColor=none;fillColor=none;" parent="1" vertex="1">
          <mxGeometry x="210" y="298" width="80" height="30" as="geometry" />
        </mxCell>
        <mxCell id="dcRqdp4wQ2sYVilebc7Z-33" value="convert to html" style="text;html=1;align=center;verticalAlign=middle;resizable=0;points=[];autosize=1;strokeColor=none;fillColor=none;" parent="1" vertex="1">
          <mxGeometry x="320" y="248" width="100" height="30" as="geometry" />
        </mxCell>
        <mxCell id="dcRqdp4wQ2sYVilebc7Z-34" value="3.) save html file" style="text;html=1;align=center;verticalAlign=middle;resizable=0;points=[];autosize=1;strokeColor=none;fillColor=none;" parent="1" vertex="1">
          <mxGeometry x="385" y="360" width="110" height="30" as="geometry" />
        </mxCell>
        <mxCell id="dcRqdp4wQ2sYVilebc7Z-35" value="" style="edgeStyle=orthogonalEdgeStyle;html=1;endArrow=block;elbow=vertical;startArrow=none;endFill=1;strokeColor=#006EAF;rounded=0;fillColor=#1ba1e2;" parent="1" source="dcRqdp4wQ2sYVilebc7Z-26" edge="1">
          <mxGeometry width="100" relative="1" as="geometry">
            <mxPoint x="187" y="340" as="sourcePoint" />
            <mxPoint x="374.5333333333333" y="440" as="targetPoint" />
            <Array as="points" />
          </mxGeometry>
        </mxCell>
        <mxCell id="dcRqdp4wQ2sYVilebc7Z-36" value="" style="outlineConnect=0;dashed=0;verticalLabelPosition=bottom;verticalAlign=top;align=center;html=1;shape=mxgraph.aws3.lambda_function;fillColor=#F58534;gradientColor=none;" parent="1" vertex="1">
          <mxGeometry x="107.5" y="450.5" width="69" height="72" as="geometry" />
        </mxCell>
        <mxCell id="dcRqdp4wQ2sYVilebc7Z-38" value="" style="edgeStyle=orthogonalEdgeStyle;html=1;endArrow=block;elbow=vertical;startArrow=none;endFill=1;strokeColor=#006EAF;rounded=0;fillColor=#1ba1e2;" parent="1" target="dcRqdp4wQ2sYVilebc7Z-36" edge="1">
          <mxGeometry width="100" relative="1" as="geometry">
            <mxPoint x="336.25" y="486.5" as="sourcePoint" />
            <mxPoint x="385" y="450" as="targetPoint" />
            <Array as="points" />
          </mxGeometry>
        </mxCell>
        <mxCell id="dcRqdp4wQ2sYVilebc7Z-39" value="Create Job&amp;nbsp;" style="text;html=1;align=center;verticalAlign=middle;resizable=0;points=[];autosize=1;strokeColor=none;fillColor=none;" parent="1" vertex="1">
          <mxGeometry x="95" y="528" width="90" height="30" as="geometry" />
        </mxCell>
        <mxCell id="dcRqdp4wQ2sYVilebc7Z-40" value="4.) Trigger" style="text;html=1;align=center;verticalAlign=middle;resizable=0;points=[];autosize=1;strokeColor=none;fillColor=none;" parent="1" vertex="1">
          <mxGeometry x="210" y="451.5" width="80" height="30" as="geometry" />
        </mxCell>
        <mxCell id="dcRqdp4wQ2sYVilebc7Z-42" value="" style="edgeStyle=orthogonalEdgeStyle;html=1;endArrow=block;elbow=vertical;startArrow=none;endFill=1;strokeColor=#006EAF;rounded=0;fillColor=#1ba1e2;" parent="1" source="dcRqdp4wQ2sYVilebc7Z-36" target="dcRqdp4wQ2sYVilebc7Z-14" edge="1">
          <mxGeometry width="100" relative="1" as="geometry">
            <mxPoint x="346" y="497" as="sourcePoint" />
            <mxPoint x="187" y="497" as="targetPoint" />
            <Array as="points" />
          </mxGeometry>
        </mxCell>
        <mxCell id="dcRqdp4wQ2sYVilebc7Z-43" value="5.)Assigning Job" style="text;html=1;align=center;verticalAlign=middle;resizable=0;points=[];autosize=1;strokeColor=none;fillColor=none;" parent="1" vertex="1">
          <mxGeometry x="-20" y="450.5" width="110" height="30" as="geometry" />
        </mxCell>
        <mxCell id="dcRqdp4wQ2sYVilebc7Z-44" value="Aws Translate" style="outlineConnect=0;dashed=0;verticalLabelPosition=bottom;verticalAlign=top;align=center;html=1;shape=mxgraph.aws3.machine_learning;fillColor=#2E73B8;gradientColor=none;" parent="1" vertex="1">
          <mxGeometry x="-137.5" y="130" width="76.5" height="93" as="geometry" />
        </mxCell>
        <mxCell id="dcRqdp4wQ2sYVilebc7Z-46" value="" style="edgeStyle=orthogonalEdgeStyle;html=1;endArrow=block;elbow=vertical;startArrow=none;endFill=1;strokeColor=#006EAF;rounded=0;fillColor=#1ba1e2;" parent="1" source="dcRqdp4wQ2sYVilebc7Z-14" edge="1">
          <mxGeometry width="100" relative="1" as="geometry">
            <mxPoint x="118" y="497" as="sourcePoint" />
            <mxPoint x="-81.75" y="640" as="targetPoint" />
            <Array as="points" />
          </mxGeometry>
        </mxCell>
        <mxCell id="dcRqdp4wQ2sYVilebc7Z-48" value="6.) save&lt;br&gt;&amp;nbsp;output files" style="edgeLabel;html=1;align=center;verticalAlign=middle;resizable=0;points=[];" parent="dcRqdp4wQ2sYVilebc7Z-46" vertex="1" connectable="0">
          <mxGeometry x="-0.0775" relative="1" as="geometry">
            <mxPoint x="-38" as="offset" />
          </mxGeometry>
        </mxCell>
        <mxCell id="dcRqdp4wQ2sYVilebc7Z-49" value="" style="outlineConnect=0;dashed=0;verticalLabelPosition=bottom;verticalAlign=top;align=center;html=1;shape=mxgraph.aws3.lambda_function;fillColor=#F58534;gradientColor=none;" parent="1" vertex="1">
          <mxGeometry x="107.5" y="645.5" width="69" height="72" as="geometry" />
        </mxCell>
        <mxCell id="dcRqdp4wQ2sYVilebc7Z-50" value="" style="edgeStyle=orthogonalEdgeStyle;html=1;endArrow=block;elbow=vertical;startArrow=none;endFill=1;strokeColor=#006EAF;rounded=0;fillColor=#1ba1e2;" parent="1" source="dcRqdp4wQ2sYVilebc7Z-61" target="dcRqdp4wQ2sYVilebc7Z-49" edge="1">
          <mxGeometry width="100" relative="1" as="geometry">
            <mxPoint x="-43.5" y="686.5" as="sourcePoint" />
            <mxPoint x="-72" y="650" as="targetPoint" />
            <Array as="points" />
          </mxGeometry>
        </mxCell>
        <mxCell id="dcRqdp4wQ2sYVilebc7Z-51" value="7.) Trigger" style="edgeLabel;html=1;align=center;verticalAlign=middle;resizable=0;points=[];" parent="dcRqdp4wQ2sYVilebc7Z-50" vertex="1" connectable="0">
          <mxGeometry x="-0.0775" relative="1" as="geometry">
            <mxPoint x="-2" y="-27" as="offset" />
          </mxGeometry>
        </mxCell>
        <mxCell id="dcRqdp4wQ2sYVilebc7Z-52" value="&amp;nbsp;Convert to srt&lt;br&gt;" style="text;html=1;align=center;verticalAlign=middle;resizable=0;points=[];autosize=1;strokeColor=none;fillColor=none;" parent="1" vertex="1">
          <mxGeometry x="80" y="728" width="100" height="30" as="geometry" />
        </mxCell>
        <mxCell id="dcRqdp4wQ2sYVilebc7Z-54" value="" style="edgeStyle=orthogonalEdgeStyle;html=1;endArrow=block;elbow=vertical;startArrow=none;endFill=1;strokeColor=#006EAF;rounded=0;fillColor=#1ba1e2;" parent="1" source="dcRqdp4wQ2sYVilebc7Z-49" target="dcRqdp4wQ2sYVilebc7Z-62" edge="1">
          <mxGeometry width="100" relative="1" as="geometry">
            <mxPoint x="-33" y="697" as="sourcePoint" />
            <mxPoint x="336.25" y="686.5" as="targetPoint" />
            <Array as="points" />
          </mxGeometry>
        </mxCell>
        <mxCell id="dcRqdp4wQ2sYVilebc7Z-55" value="8.)save srt file" style="edgeLabel;html=1;align=center;verticalAlign=middle;resizable=0;points=[];" parent="dcRqdp4wQ2sYVilebc7Z-54" vertex="1" connectable="0">
          <mxGeometry x="-0.0775" relative="1" as="geometry">
            <mxPoint x="-2" y="-27" as="offset" />
          </mxGeometry>
        </mxCell>
        <mxCell id="dcRqdp4wQ2sYVilebc7Z-56" value="Batch Translation" style="text;html=1;align=center;verticalAlign=middle;resizable=0;points=[];autosize=1;strokeColor=none;fillColor=none;" parent="1" vertex="1">
          <mxGeometry x="-150" y="410" width="120" height="30" as="geometry" />
        </mxCell>
        <mxCell id="dcRqdp4wQ2sYVilebc7Z-57" value="User" style="text;html=1;align=center;verticalAlign=middle;resizable=0;points=[];autosize=1;strokeColor=none;fillColor=none;" parent="1" vertex="1">
          <mxGeometry x="-155" y="318" width="50" height="30" as="geometry" />
        </mxCell>
        <mxCell id="dcRqdp4wQ2sYVilebc7Z-58" value="srt-files-bucket" style="outlineConnect=0;dashed=0;verticalLabelPosition=bottom;verticalAlign=top;align=center;html=1;shape=mxgraph.aws3.s3;fillColor=#E05243;gradientColor=none;" parent="1" vertex="1">
          <mxGeometry x="96.25" y="283.5" width="76.5" height="93" as="geometry" />
        </mxCell>
        <mxCell id="dcRqdp4wQ2sYVilebc7Z-60" value="html-mapped-bucket" style="outlineConnect=0;dashed=0;verticalLabelPosition=bottom;verticalAlign=top;align=center;html=1;shape=mxgraph.aws3.s3;fillColor=#E05243;gradientColor=none;" parent="1" vertex="1">
          <mxGeometry x="336" y="437" width="76.5" height="93" as="geometry" />
        </mxCell>
        <mxCell id="dcRqdp4wQ2sYVilebc7Z-61" value="translated-html-files" style="outlineConnect=0;dashed=0;verticalLabelPosition=bottom;verticalAlign=top;align=center;html=1;shape=mxgraph.aws3.s3;fillColor=#E05243;gradientColor=none;" parent="1" vertex="1">
          <mxGeometry x="-120" y="635" width="76.5" height="93" as="geometry" />
        </mxCell>
        <mxCell id="dcRqdp4wQ2sYVilebc7Z-62" value="" style="outlineConnect=0;dashed=0;verticalLabelPosition=bottom;verticalAlign=top;align=center;html=1;shape=mxgraph.aws3.s3;fillColor=#E05243;gradientColor=none;" parent="1" vertex="1">
          <mxGeometry x="336" y="635" width="76.5" height="93" as="geometry" />
        </mxCell>
        <mxCell id="dcRqdp4wQ2sYVilebc7Z-64" value="" style="shape=umlActor;verticalLabelPosition=bottom;verticalAlign=top;html=1;fillColor=#1ba1e2;fontColor=#ffffff;strokeColor=#006EAF;" parent="1" vertex="1">
          <mxGeometry x="359.5" y="790" width="30" height="60" as="geometry" />
        </mxCell>
        <mxCell id="dcRqdp4wQ2sYVilebc7Z-66" value="" style="edgeStyle=orthogonalEdgeStyle;html=1;endArrow=block;elbow=vertical;startArrow=none;endFill=1;strokeColor=#006EAF;rounded=0;fillColor=#1ba1e2;entryX=0.456;entryY=0.614;entryDx=0;entryDy=0;entryPerimeter=0;" parent="1" source="dcRqdp4wQ2sYVilebc7Z-62" target="dcRqdp4wQ2sYVilebc7Z-64" edge="1">
          <mxGeometry width="100" relative="1" as="geometry">
            <mxPoint x="187" y="692" as="sourcePoint" />
            <mxPoint x="346" y="692" as="targetPoint" />
            <Array as="points" />
          </mxGeometry>
        </mxCell>
        <mxCell id="dcRqdp4wQ2sYVilebc7Z-67" value="9.)download file" style="edgeLabel;html=1;align=center;verticalAlign=middle;resizable=0;points=[];" parent="dcRqdp4wQ2sYVilebc7Z-66" vertex="1" connectable="0">
          <mxGeometry x="-0.0775" relative="1" as="geometry">
            <mxPoint x="-33" y="7" as="offset" />
          </mxGeometry>
        </mxCell>
        <mxCell id="dcRqdp4wQ2sYVilebc7Z-68" value="User" style="text;html=1;align=center;verticalAlign=middle;resizable=0;points=[];autosize=1;strokeColor=none;fillColor=none;" parent="1" vertex="1">
          <mxGeometry x="349.25" y="850" width="50" height="30" as="geometry" />
        </mxCell>
        <mxCell id="dcRqdp4wQ2sYVilebc7Z-69" value="translated-srt-files" style="text;html=1;align=center;verticalAlign=middle;resizable=0;points=[];autosize=1;strokeColor=none;fillColor=none;" parent="1" vertex="1">
          <mxGeometry x="310" y="600" width="120" height="30" as="geometry" />
        </mxCell>
      </root>
    </mxGraphModel>
  </diagram>
</mxfile>
